<svg xmlns="http://www.w3.org/2000/svg" viewBox="0 0 100 100">
  <!-- Light strokes on transparent bg — visible on both dark and light browser chrome -->

  <path d="M 15,62
    C 5,62 3,52 5,46
    C 7,39 13,34 21,36
    C 21,25 28,19 36,21
    C 38,13 46,9 52,12
    C 54,7 63,9 68,16
    C 72,12 80,16 82,25
    C 89,25 95,34 93,43
    C 91,53 85,62 78,62
    L 15,62 Z"
    fill="none"
    stroke="#c0c0c0"
    stroke-width="8.5"
    stroke-linejoin="round"
    stroke-linecap="round"/>

  <path d="M 10,79 C 24,76 42,81 53,77 C 65,73 76,80 85,78"
    fill="none" stroke="#b0b0b0" stroke-width="7.5" stroke-linecap="round"/>
  <path d="M 10,91 C 26,94 44,88 56,92 C 68,88 78,94 85,91"
    fill="none" stroke="#b0b0b0" stroke-width="7.5" stroke-linecap="round"/>
</svg>
