<svg xmlns="http://www.w3.org/2000/svg" viewBox="0 0 100 100">
  <defs>
    <!-- userSpaceOnUse so gradient works correctly on line elements too -->
    <linearGradient id="cg" x1="15" y1="0" x2="78" y2="0" gradientUnits="userSpaceOnUse">
      <stop offset="0%"   stop-color="#606060"/>
      <stop offset="55%"  stop-color="#7a6a50"/>
      <stop offset="100%" stop-color="#c8721e"/>
    </linearGradient>
  </defs>

  <rect width="100" height="100" fill="#131515" rx="7"/>

  <path d="M 15,62
    C 5,62 3,52 5,46
    C 7,39 13,34 21,36
    C 21,25 28,19 36,21
    C 38,13 46,9 52,12
    C 54,7 63,9 68,16
    C 72,12 80,16 82,25
    C 89,25 95,34 93,43
    C 91,53 85,62 78,62
    L 15,62 Z"
    fill="none"
    stroke="url(#cg)"
    stroke-width="8"
    stroke-linejoin="round"
    stroke-linecap="round"/>

  <line x1="15" y1="74" x2="78" y2="74" stroke="url(#cg)" stroke-width="7" stroke-linecap="round"/>
  <line x1="15" y1="86" x2="78" y2="86" stroke="url(#cg)" stroke-width="7" stroke-linecap="round"/>
</svg>
