<svg xmlns="http://www.w3.org/2000/svg" viewBox="0 0 100 100">
  <rect width="100" height="100" fill="#131515" rx="7"/>

  <!-- Cloud — solid grey, no orange -->
  <path d="M 15,62
    C 5,62 3,52 5,46
    C 7,39 13,34 21,36
    C 21,25 28,19 36,21
    C 38,13 46,9 52,12
    C 54,7 63,9 68,16
    C 72,12 80,16 82,25
    C 89,25 95,34 93,43
    C 91,53 85,62 78,62
    L 15,62 Z"
    fill="none"
    stroke="#848484"
    stroke-width="8"
    stroke-linejoin="round"
    stroke-linecap="round"/>

  <!-- Hand-drawn lines — gentle bezier undulation, no gradient -->
  <path d="M 10,79 C 24,76 42,81 53,77 C 65,73 76,80 85,78"
    fill="none" stroke="#787878" stroke-width="7" stroke-linecap="round"/>
  <path d="M 10,91 C 26,94 44,88 56,92 C 68,88 78,94 85,91"
    fill="none" stroke="#787878" stroke-width="7" stroke-linecap="round"/>
</svg>
